<?xml version="1.0" standalone="no"?>
<!DOCTYPE svg PUBLIC "-//W3C//DTD SVG 20010904//EN"
 "http://www.w3.org/TR/2001/REC-SVG-20010904/DTD/svg10.dtd">
<svg version="1.0" xmlns="http://www.w3.org/2000/svg"
 width="700.000000pt" height="700.000000pt" viewBox="0 0 700.000000 700.000000"
 preserveAspectRatio="xMidYMid meet">
<metadata>
Created by potrace 1.14, written by Peter Selinger 2001-2017
</metadata>
<g transform="translate(0.000000,700.000000) scale(0.100000,-0.100000)"
fill="#000000" stroke="none">
<path d="M1472 6964 c-17 -20 -66 -73 -109 -118 -64 -67 -234 -250 -328 -351
-11 -12 -44 -46 -72 -76 l-53 -54 63 -130 c148 -302 325 -582 541 -850 86
-108 111 -136 226 -258 412 -438 914 -797 1445 -1032 110 -49 120 -53 190 -80
39 -15 79 -31 90 -36 34 -15 294 -99 308 -99 6 0 41 28 77 61 92 85 310 271
378 321 31 24 62 48 68 53 6 6 22 17 34 25 12 8 47 33 78 55 58 42 257 172
289 190 10 6 59 33 108 62 243 139 518 265 800 368 82 29 347 112 385 120 8 2
60 14 115 28 88 22 141 34 235 52 48 9 135 25 174 31 21 3 47 7 57 9 10 2 49
7 86 10 37 4 77 9 88 11 11 2 58 7 105 10 47 4 94 8 105 9 11 1 26 3 33 4 9 1
12 99 12 452 l0 451 -102 -6 c-57 -4 -121 -9 -143 -11 -94 -10 -293 -36 -316
-40 -13 -3 -44 -8 -69 -11 -25 -3 -52 -7 -60 -9 -8 -3 -33 -7 -55 -11 -22 -3
-58 -9 -80 -14 -22 -5 -56 -12 -75 -15 -194 -34 -757 -198 -925 -270 -16 -7
-46 -19 -65 -26 -192 -71 -562 -247 -765 -364 -55 -31 -120 -69 -145 -83 -76
-42 -378 -245 -499 -335 l-115 -84 -60 24 c-75 30 -261 123 -315 158 -22 14
-44 25 -47 25 -4 0 -70 42 -148 94 -329 220 -669 529 -906 825 -19 24 -40 48
-45 55 -33 37 -164 218 -232 321 -98 149 -171 272 -258 440 -37 72 -69 131
-70 133 -1 1 -16 -14 -33 -34z"/>
<path d="M470 5891 c-28 -31 -97 -105 -252 -271 -59 -63 -132 -142 -163 -175
l-55 -60 0 -293 0 -294 37 -56 c21 -31 41 -61 46 -67 4 -5 60 -80 123 -165 64
-85 119 -157 123 -160 3 -3 26 -29 49 -59 141 -179 456 -503 682 -701 94 -82
382 -311 440 -350 12 -8 32 -22 44 -31 179 -136 558 -361 836 -496 237 -114
242 -117 305 -143 100 -42 105 -45 106 -65 0 -11 2 -31 4 -45 23 -170 24 -609
1 -740 -3 -14 -10 -63 -16 -110 -6 -47 -13 -98 -16 -115 -12 -68 -34 -182 -39
-205 -3 -14 -8 -36 -11 -50 -15 -73 -67 -264 -96 -350 -12 -36 -23 -67 -23
-70 -1 -3 -4 -12 -7 -20 -3 -8 -16 -44 -29 -80 -56 -161 -216 -509 -303 -660
-14 -25 -26 -48 -26 -52 0 -5 211 -8 470 -8 l470 0 23 38 c24 37 197 386 197
396 0 3 11 30 25 60 14 30 25 58 25 61 0 4 7 21 14 38 22 48 53 136 103 292
95 300 149 558 188 895 14 121 19 244 20 455 0 212 -4 312 -20 475 -9 93 -41
318 -49 341 -3 8 -7 31 -10 51 -10 64 -47 223 -54 229 -4 4 -65 25 -137 47
-122 37 -344 116 -410 146 -16 8 -75 33 -130 57 -130 55 -380 184 -496 254
-51 30 -94 55 -96 55 -13 0 -405 274 -488 341 -569 465 -992 973 -1324 1592
-29 53 -53 97 -54 96 -1 0 -13 -13 -27 -28z"/>
<path d="M6897 4724 c-1 -1 -31 -5 -67 -8 -137 -14 -245 -31 -350 -52 -41 -9
-88 -18 -105 -21 -174 -28 -608 -163 -810 -253 -11 -5 -63 -27 -115 -50 -392
-171 -842 -466 -1161 -760 -15 -14 -46 -42 -68 -63 -27 -24 -40 -45 -37 -55 2
-9 8 -33 12 -52 4 -19 8 -37 9 -40 2 -9 25 -114 31 -140 14 -66 40 -223 50
-295 3 -27 7 -57 9 -65 2 -8 6 -46 10 -85 4 -38 9 -83 11 -100 23 -208 22
-723 -1 -905 -2 -19 -7 -60 -9 -91 -3 -31 -8 -72 -11 -90 -3 -19 -12 -81 -20
-139 -8 -58 -22 -139 -30 -180 -17 -85 -17 -84 -45 -200 -11 -47 -23 -96 -26
-110 -19 -88 -134 -440 -186 -570 -16 -41 -63 -148 -103 -238 l-73 -162 552 0
552 0 38 108 c85 242 197 628 222 767 3 17 10 50 15 75 6 25 12 54 14 65 2 11
9 49 16 85 6 36 13 79 15 95 2 17 8 55 14 85 5 30 12 78 15 105 4 28 8 61 10
75 2 14 7 57 10 95 4 39 8 86 11 105 25 229 25 841 -1 1060 -2 19 -6 62 -10
95 -7 63 -10 91 -20 167 l-6 47 93 69 c119 89 298 196 458 275 69 34 127 62
130 62 3 1 23 9 45 19 136 61 439 165 600 207 22 6 56 15 75 20 37 10 200 44
260 55 19 3 42 7 50 9 8 2 18 4 23 4 4 1 7 222 7 491 l0 491 -51 -3 c-28 -2
-51 -4 -52 -4z"/>
</g>
</svg>
