<svg fill="none" height="32" viewBox="0 0 33 32" width="33" xmlns="http://www.w3.org/2000/svg"><g fill="#fff"><path d="m17.4683 13.9167c2.0426-1.9983 4.4143-3.546 7.0498-4.60408 2.4945-1.00042 5.1196-1.51635 7.81-1.5373v-3.88907c-5.5166.07333-10.947 1.93537-15.3535 5.27971l-.3396.25665-.3944-.16237c-.4127-.17023-1.8937-.84328-3.6385-2.32821-2.0218-1.72324-3.6595-3.88383-4.87932-6.43203l-2.54673 2.73414c2.31426 5.17496 6.86965 9.13476 12.29225 10.68256z"/><path d="m16.8414 16.2422c-5.851-1.6525-10.69367-5.6646-13.43108-11.11197l-3.076976 3.30768c2.807936 4.94189 7.217046 8.87019 12.456756 11.09369l.0052.0026.4101.1755.0262.199.0339.2855c.1149.9768.465 5.8873-3.0482 11.3058h4.0643c1.4288-2.1946 2.4135-4.7193 2.8576-7.3225.4492-2.6372.3447-5.3713-.2978-7.9353z"/><path d="m19.1713 15.6216c.7235 2.8493.862 5.7589.4153 8.6502-.397 2.5508-1.2329 4.9759-2.4892 7.2282h4.8374c.8725-2.0375 1.4837-4.185 1.818-6.3928.3605-2.3727.3944-4.7742.0993-7.1312l-.0523-.4269.3396-.2593c.5564-.4243 3.4636-2.4827 8.1939-2.9724v-4.1196c-4.9106.0629-9.6566 2.014-13.162 5.4238z"/></g></svg>